# xmcd
#
# Track frame offsets: 
#        150
#        18484
#        35828
#        49417
#        71618
#        91932
#        115124
#        131352
#        150699
#
# Disc length: 2154 seconds
#
# Revision: 0
# Processed by: cddbd v1.5.2PL0 Copyright (c) Steve Scherf et al.
# Submitted via: ExactAudioCopy v1.3
#
DISCID=75086809
DTITLE=Derrick Larsen - Retro Guitar Show
DYEAR=2019
DGENRE=Blues Rock
TTITLE0=Love With You
TTITLE1=Hey Joe
TTITLE2=Folsom
TTITLE3=River
TTITLE4=Ring Of Fire
TTITLE5=Rolling Stone
TTITLE6=King Bee
TTITLE7=Roadhouse
TTITLE8=Crossroads
EXTD=
EXTT0=
EXTT1=
EXTT2=
EXTT3=
EXTT4=
EXTT5=
EXTT6=
EXTT7=
EXTT8=
PLAYORDER=
